<mxfile host="65bd71144e">
    <diagram id="iorcRCthD171SyJ1eXAP" name="Page-1">
        <mxGraphModel dx="1118" dy="766" grid="1" gridSize="10" guides="1" tooltips="1" connect="1" arrows="1" fold="1" page="1" pageScale="1" pageWidth="827" pageHeight="1169" math="0" shadow="0">
            <root>
                <mxCell id="0"/>
                <mxCell id="1" parent="0"/>
                <mxCell id="Tp9ov5M1JZ4nnl-rEPXS-1" value="Produit" style="swimlane;fontStyle=0;childLayout=stackLayout;horizontal=1;startSize=30;horizontalStack=0;resizeParent=1;resizeParentMax=0;resizeLast=0;collapsible=1;marginBottom=0;" parent="1" vertex="1">
                    <mxGeometry x="300" y="170" width="140" height="150" as="geometry"/>
                </mxCell>
                <mxCell id="Tp9ov5M1JZ4nnl-rEPXS-18" value="&lt;div&gt;&lt;u&gt;IDprod&lt;/u&gt;&lt;/div&gt;" style="text;html=1;align=center;verticalAlign=middle;resizable=0;points=[];autosize=1;strokeColor=none;fillColor=none;" parent="Tp9ov5M1JZ4nnl-rEPXS-1" vertex="1">
                    <mxGeometry y="30" width="140" height="30" as="geometry"/>
                </mxCell>
                <mxCell id="Tp9ov5M1JZ4nnl-rEPXS-24" value="Name" style="text;html=1;align=center;verticalAlign=middle;resizable=0;points=[];autosize=1;strokeColor=none;fillColor=none;" parent="Tp9ov5M1JZ4nnl-rEPXS-1" vertex="1">
                    <mxGeometry y="60" width="140" height="30" as="geometry"/>
                </mxCell>
                <mxCell id="Tp9ov5M1JZ4nnl-rEPXS-23" value="Price" style="text;html=1;align=center;verticalAlign=middle;resizable=0;points=[];autosize=1;strokeColor=none;fillColor=none;" parent="Tp9ov5M1JZ4nnl-rEPXS-1" vertex="1">
                    <mxGeometry y="90" width="140" height="30" as="geometry"/>
                </mxCell>
                <mxCell id="Tp9ov5M1JZ4nnl-rEPXS-22" value="Quantity" style="text;html=1;align=center;verticalAlign=middle;resizable=0;points=[];autosize=1;strokeColor=none;fillColor=none;" parent="Tp9ov5M1JZ4nnl-rEPXS-1" vertex="1">
                    <mxGeometry y="120" width="140" height="30" as="geometry"/>
                </mxCell>
                <mxCell id="Tp9ov5M1JZ4nnl-rEPXS-9" style="edgeStyle=orthogonalEdgeStyle;rounded=0;orthogonalLoop=1;jettySize=auto;html=1;entryX=0.5;entryY=1;entryDx=0;entryDy=0;endArrow=classic;endFill=1;" parent="1" source="Tp9ov5M1JZ4nnl-rEPXS-5" target="Tp9ov5M1JZ4nnl-rEPXS-7" edge="1">
                    <mxGeometry relative="1" as="geometry"/>
                </mxCell>
                <mxCell id="Tp9ov5M1JZ4nnl-rEPXS-5" value="UserInfo" style="swimlane;fontStyle=0;childLayout=stackLayout;horizontal=1;startSize=30;horizontalStack=0;resizeParent=1;resizeParentMax=0;resizeLast=0;collapsible=1;marginBottom=0;" parent="1" vertex="1">
                    <mxGeometry x="540" y="520" width="140" height="60" as="geometry"/>
                </mxCell>
                <mxCell id="Tp9ov5M1JZ4nnl-rEPXS-8" style="edgeStyle=orthogonalEdgeStyle;rounded=0;orthogonalLoop=1;jettySize=auto;html=1;entryX=0.5;entryY=1;entryDx=0;entryDy=0;endArrow=classic;endFill=1;" parent="1" source="Tp9ov5M1JZ4nnl-rEPXS-6" target="Tp9ov5M1JZ4nnl-rEPXS-1" edge="1">
                    <mxGeometry relative="1" as="geometry"/>
                </mxCell>
                <mxCell id="Tp9ov5M1JZ4nnl-rEPXS-6" value="Marque" style="swimlane;fontStyle=0;childLayout=stackLayout;horizontal=1;startSize=30;horizontalStack=0;resizeParent=1;resizeParentMax=0;resizeLast=0;collapsible=1;marginBottom=0;" parent="1" vertex="1">
                    <mxGeometry x="300" y="530" width="140" height="90" as="geometry"/>
                </mxCell>
                <mxCell id="Tp9ov5M1JZ4nnl-rEPXS-20" value="&lt;u&gt;IDmarque&lt;/u&gt;" style="text;html=1;align=center;verticalAlign=middle;resizable=0;points=[];autosize=1;strokeColor=none;fillColor=none;" parent="Tp9ov5M1JZ4nnl-rEPXS-6" vertex="1">
                    <mxGeometry y="30" width="140" height="30" as="geometry"/>
                </mxCell>
                <mxCell id="10" value="Name" style="text;html=1;align=center;verticalAlign=middle;resizable=0;points=[];autosize=1;strokeColor=none;fillColor=none;" parent="Tp9ov5M1JZ4nnl-rEPXS-6" vertex="1">
                    <mxGeometry y="60" width="140" height="30" as="geometry"/>
                </mxCell>
                <mxCell id="Tp9ov5M1JZ4nnl-rEPXS-7" value="User" style="swimlane;fontStyle=0;childLayout=stackLayout;horizontal=1;startSize=30;horizontalStack=0;resizeParent=1;resizeParentMax=0;resizeLast=0;collapsible=1;marginBottom=0;" parent="1" vertex="1">
                    <mxGeometry x="540" y="190" width="140" height="150" as="geometry"/>
                </mxCell>
                <mxCell id="Tp9ov5M1JZ4nnl-rEPXS-28" value="&lt;div&gt;&lt;u&gt;IDuser&lt;/u&gt;&lt;/div&gt;" style="text;html=1;align=center;verticalAlign=middle;resizable=0;points=[];autosize=1;strokeColor=none;fillColor=none;" parent="Tp9ov5M1JZ4nnl-rEPXS-7" vertex="1">
                    <mxGeometry y="30" width="140" height="30" as="geometry"/>
                </mxCell>
                <mxCell id="Tp9ov5M1JZ4nnl-rEPXS-27" value="Login" style="text;html=1;align=center;verticalAlign=middle;resizable=0;points=[];autosize=1;strokeColor=none;fillColor=none;" parent="Tp9ov5M1JZ4nnl-rEPXS-7" vertex="1">
                    <mxGeometry y="60" width="140" height="30" as="geometry"/>
                </mxCell>
                <mxCell id="Tp9ov5M1JZ4nnl-rEPXS-26" value="Password" style="text;html=1;align=center;verticalAlign=middle;resizable=0;points=[];autosize=1;strokeColor=none;fillColor=none;" parent="Tp9ov5M1JZ4nnl-rEPXS-7" vertex="1">
                    <mxGeometry y="90" width="140" height="30" as="geometry"/>
                </mxCell>
                <mxCell id="Tp9ov5M1JZ4nnl-rEPXS-25" value="Status" style="text;html=1;align=center;verticalAlign=middle;resizable=0;points=[];autosize=1;strokeColor=none;fillColor=none;" parent="Tp9ov5M1JZ4nnl-rEPXS-7" vertex="1">
                    <mxGeometry y="120" width="140" height="30" as="geometry"/>
                </mxCell>
                <mxCell id="3" value="CatÃ©gorie" style="swimlane;fontStyle=0;childLayout=stackLayout;horizontal=1;startSize=30;horizontalStack=0;resizeParent=1;resizeParentMax=0;resizeLast=0;collapsible=1;marginBottom=0;" parent="1" vertex="1">
                    <mxGeometry x="40" y="260" width="140" height="80" as="geometry"/>
                </mxCell>
                <mxCell id="4" value="&lt;div&gt;&lt;u&gt;IDcat&lt;/u&gt;&lt;/div&gt;" style="text;html=1;align=center;verticalAlign=middle;resizable=0;points=[];autosize=1;strokeColor=none;fillColor=none;" parent="3" vertex="1">
                    <mxGeometry y="30" width="140" height="20" as="geometry"/>
                </mxCell>
                <mxCell id="5" value="Name" style="text;html=1;align=center;verticalAlign=middle;resizable=0;points=[];autosize=1;strokeColor=none;fillColor=none;" parent="3" vertex="1">
                    <mxGeometry y="50" width="140" height="30" as="geometry"/>
                </mxCell>
                <mxCell id="9" style="html=1;entryX=0.007;entryY=0.7;entryDx=0;entryDy=0;entryPerimeter=0;edgeStyle=orthogonalEdgeStyle;" parent="1" target="Tp9ov5M1JZ4nnl-rEPXS-24" edge="1">
                    <mxGeometry relative="1" as="geometry">
                        <mxPoint x="180" y="300.4855349925547" as="sourcePoint"/>
                    </mxGeometry>
                </mxCell>
                <mxCell id="15" style="edgeStyle=orthogonalEdgeStyle;html=1;entryX=0.5;entryY=1.133;entryDx=0;entryDy=0;entryPerimeter=0;" parent="1" source="11" target="Tp9ov5M1JZ4nnl-rEPXS-22" edge="1">
                    <mxGeometry relative="1" as="geometry">
                        <Array as="points">
                            <mxPoint x="370" y="430"/>
                        </Array>
                    </mxGeometry>
                </mxCell>
                <mxCell id="11" value="ProductInfo" style="swimlane;fontStyle=0;childLayout=stackLayout;horizontal=1;startSize=30;horizontalStack=0;resizeParent=1;resizeParentMax=0;resizeLast=0;collapsible=1;marginBottom=0;" parent="1" vertex="1">
                    <mxGeometry x="160" y="410" width="140" height="60" as="geometry"/>
                </mxCell>
            </root>
        </mxGraphModel>
    </diagram>
</mxfile>